<svg width="29" height="26" viewBox="0 0 29 26" fill="none" xmlns="http://www.w3.org/2000/svg">
<path d="M0 11.9754C0 12.5932 0.463335 13.1159 1.22368 13.1159C1.59197 13.1159 1.91274 12.9259 2.19787 12.6764L3.56411 11.5358V22.5965C3.56411 24.3548 4.62147 25.3884 6.42728 25.3884H22.5014C24.3073 25.3884 25.3646 24.3548 25.3646 22.5965V11.4646L26.814 12.6764C27.0991 12.9259 27.4199 13.1159 27.7882 13.1159C28.4773 13.1159 29 12.6882 29 12.0111C29 11.6071 28.8456 11.2864 28.5367 11.0369L25.3646 8.36379V3.31463C25.3646 2.78001 25.0201 2.43548 24.4855 2.43548H22.8816C22.3589 2.43548 22.0025 2.78001 22.0025 3.31463V5.53626L16.1811 0.64154C15.1594 -0.213847 13.8763 -0.213847 12.8427 0.64154L0.463335 11.0369C0.154445 11.2982 0 11.6428 0 11.9754ZM17.9156 15.2663C17.9156 14.7079 17.5592 14.3515 17.0008 14.3515H11.9992C11.4527 14.3515 11.0725 14.7079 11.0725 15.2663V23.0598H7.04506C6.2966 23.0598 5.89267 22.644 5.89267 21.8955V9.57558L14.007 2.78001C14.3277 2.49488 14.696 2.49488 15.0168 2.78001L23.0361 9.5043V21.8955C23.0361 22.644 22.6321 23.0598 21.8837 23.0598H17.9156V15.2663Z" fill="#007AFF"/>
</svg>
