<svg width="26" height="22" viewBox="0 0 26 22" fill="none" xmlns="http://www.w3.org/2000/svg">
<path d="M0.354766 0.773167C0.0946043 1.97937 0 3.57582 0 4.64012C0 13.5921 5.34514 19.5048 13.5048 19.5048C17.5136 19.5048 19.8906 17.7192 21.0731 16.4065C22.0428 17.7783 22.5868 19.2447 23.2017 21.184C23.3791 21.7635 23.793 22 24.2542 22C25.1647 22 25.9098 21.2077 25.9098 20.1197C25.9098 18.476 23.521 15.5906 22.2793 14.4317C17.017 9.55954 9.02289 12.4805 7.02437 7.18261C6.88246 6.80419 7.27271 6.49673 7.62747 6.85149C11.7309 11.0732 17.0879 7.5492 22.1847 12.2203C22.6341 12.6342 23.1899 12.4213 23.2727 11.9365C23.3318 11.6054 23.3673 11.0614 23.3673 10.5174C23.3673 4.7229 19.3466 1.81381 13.5402 1.81381C11.6245 1.81381 9.37765 2.29866 7.62747 2.29866C5.74721 2.29866 3.61862 2.15675 1.90391 0.347447C1.35994 -0.220179 0.5558 -0.101923 0.354766 0.773167Z" fill="#007AFF"/>
</svg>
