<svg width="25" height="25" viewBox="0 0 25 25" fill="none" xmlns="http://www.w3.org/2000/svg">
<path d="M12.5 25C19.3369 25 25 19.349 25 12.5C25 5.66312 19.3369 0 12.4879 0C5.65102 0 0 5.66312 0 12.5C0 19.349 5.66312 25 12.5 25ZM12.5 14.4845C10.1283 14.4724 8.28896 12.4879 8.28896 9.87415C8.27686 7.40561 10.1404 5.3485 12.5 5.3485C14.8475 5.3485 16.6989 7.40561 16.6989 9.87415C16.6989 12.4879 14.8596 14.5087 12.5 14.4845ZM12.5 22.955C9.78945 22.955 6.90949 21.8296 5.08228 19.8572C6.46176 17.7759 9.23282 16.5779 12.5 16.5779C15.7309 16.5779 18.514 17.7517 19.9056 19.8572C18.0784 21.8296 15.2106 22.955 12.5 22.955Z" fill="#007AFF"/>
</svg>
